<svg id="visual" viewBox="0 0 1920 1080" width="1920" height="1080" xmlns="http://www.w3.org/2000/svg" xmlns:xlink="http://www.w3.org/1999/xlink" version="1.1"><rect x="0" y="0" width="1920" height="1080" fill="#180633"></rect><path d="M0 826L26.7 815.8C53.3 805.7 106.7 785.3 160 775.7C213.3 766 266.7 767 320 777.5C373.3 788 426.7 808 480 811.3C533.3 814.7 586.7 801.3 640 795C693.3 788.7 746.7 789.3 800 795.8C853.3 802.3 906.7 814.7 960 810.2C1013.3 805.7 1066.7 784.3 1120 774.8C1173.3 765.3 1226.7 767.7 1280 776.2C1333.3 784.7 1386.7 799.3 1440 812C1493.3 824.7 1546.7 835.3 1600 841.8C1653.3 848.3 1706.7 850.7 1760 844C1813.3 837.3 1866.7 821.7 1893.3 813.8L1920 806L1920 1081L1893.3 1081C1866.7 1081 1813.3 1081 1760 1081C1706.7 1081 1653.3 1081 1600 1081C1546.7 1081 1493.3 1081 1440 1081C1386.7 1081 1333.3 1081 1280 1081C1226.7 1081 1173.3 1081 1120 1081C1066.7 1081 1013.3 1081 960 1081C906.7 1081 853.3 1081 800 1081C746.7 1081 693.3 1081 640 1081C586.7 1081 533.3 1081 480 1081C426.7 1081 373.3 1081 320 1081C266.7 1081 213.3 1081 160 1081C106.7 1081 53.3 1081 26.7 1081L0 1081Z" fill="#380386"></path><path d="M0 818L26.7 818.7C53.3 819.3 106.7 820.7 160 831.3C213.3 842 266.7 862 320 872.3C373.3 882.7 426.7 883.3 480 878C533.3 872.7 586.7 861.3 640 852C693.3 842.7 746.7 835.3 800 840C853.3 844.7 906.7 861.3 960 868C1013.3 874.7 1066.7 871.3 1120 866C1173.3 860.7 1226.7 853.3 1280 851.3C1333.3 849.3 1386.7 852.7 1440 856.3C1493.3 860 1546.7 864 1600 861.2C1653.3 858.3 1706.7 848.7 1760 841.8C1813.3 835 1866.7 831 1893.3 829L1920 827L1920 1081L1893.3 1081C1866.7 1081 1813.3 1081 1760 1081C1706.7 1081 1653.3 1081 1600 1081C1546.7 1081 1493.3 1081 1440 1081C1386.7 1081 1333.3 1081 1280 1081C1226.7 1081 1173.3 1081 1120 1081C1066.7 1081 1013.3 1081 960 1081C906.7 1081 853.3 1081 800 1081C746.7 1081 693.3 1081 640 1081C586.7 1081 533.3 1081 480 1081C426.7 1081 373.3 1081 320 1081C266.7 1081 213.3 1081 160 1081C106.7 1081 53.3 1081 26.7 1081L0 1081Z" fill="#6a1ca4"></path><path d="M0 883L26.7 887.3C53.3 891.7 106.7 900.3 160 909.7C213.3 919 266.7 929 320 933.8C373.3 938.7 426.7 938.3 480 934.8C533.3 931.3 586.7 924.7 640 917.2C693.3 909.7 746.7 901.3 800 894.3C853.3 887.3 906.7 881.7 960 885C1013.3 888.3 1066.7 900.7 1120 909.3C1173.3 918 1226.7 923 1280 918.8C1333.3 914.7 1386.7 901.3 1440 893.3C1493.3 885.3 1546.7 882.7 1600 883.3C1653.3 884 1706.7 888 1760 896.7C1813.3 905.3 1866.7 918.7 1893.3 925.3L1920 932L1920 1081L1893.3 1081C1866.7 1081 1813.3 1081 1760 1081C1706.7 1081 1653.3 1081 1600 1081C1546.7 1081 1493.3 1081 1440 1081C1386.7 1081 1333.3 1081 1280 1081C1226.7 1081 1173.3 1081 1120 1081C1066.7 1081 1013.3 1081 960 1081C906.7 1081 853.3 1081 800 1081C746.7 1081 693.3 1081 640 1081C586.7 1081 533.3 1081 480 1081C426.7 1081 373.3 1081 320 1081C266.7 1081 213.3 1081 160 1081C106.7 1081 53.3 1081 26.7 1081L0 1081Z" fill="#9935c1"></path><path d="M0 949L26.7 946.5C53.3 944 106.7 939 160 940.2C213.3 941.3 266.7 948.7 320 951.3C373.3 954 426.7 952 480 951C533.3 950 586.7 950 640 949.7C693.3 949.3 746.7 948.7 800 947.7C853.3 946.7 906.7 945.3 960 945.3C1013.3 945.3 1066.7 946.7 1120 948.5C1173.3 950.3 1226.7 952.7 1280 957.7C1333.3 962.7 1386.7 970.3 1440 968.8C1493.3 967.3 1546.7 956.7 1600 954C1653.3 951.3 1706.7 956.7 1760 960.8C1813.3 965 1866.7 968 1893.3 969.5L1920 971L1920 1081L1893.3 1081C1866.7 1081 1813.3 1081 1760 1081C1706.7 1081 1653.3 1081 1600 1081C1546.7 1081 1493.3 1081 1440 1081C1386.7 1081 1333.3 1081 1280 1081C1226.7 1081 1173.3 1081 1120 1081C1066.7 1081 1013.3 1081 960 1081C906.7 1081 853.3 1081 800 1081C746.7 1081 693.3 1081 640 1081C586.7 1081 533.3 1081 480 1081C426.7 1081 373.3 1081 320 1081C266.7 1081 213.3 1081 160 1081C106.7 1081 53.3 1081 26.7 1081L0 1081Z" fill="#c94ede"></path><path d="M0 1001L26.7 1002.7C53.3 1004.3 106.7 1007.7 160 1012C213.3 1016.3 266.7 1021.7 320 1022.2C373.3 1022.7 426.7 1018.3 480 1016.8C533.3 1015.3 586.7 1016.7 640 1017.5C693.3 1018.3 746.7 1018.7 800 1014C853.3 1009.3 906.7 999.7 960 998.2C1013.3 996.7 1066.7 1003.3 1120 1003.8C1173.3 1004.3 1226.7 998.7 1280 997.5C1333.3 996.3 1386.7 999.7 1440 1004.8C1493.3 1010 1546.7 1017 1600 1016C1653.3 1015 1706.7 1006 1760 1000.5C1813.3 995 1866.7 993 1893.3 992L1920 991L1920 1081L1893.3 1081C1866.7 1081 1813.3 1081 1760 1081C1706.7 1081 1653.3 1081 1600 1081C1546.7 1081 1493.3 1081 1440 1081C1386.7 1081 1333.3 1081 1280 1081C1226.7 1081 1173.3 1081 1120 1081C1066.7 1081 1013.3 1081 960 1081C906.7 1081 853.3 1081 800 1081C746.7 1081 693.3 1081 640 1081C586.7 1081 533.3 1081 480 1081C426.7 1081 373.3 1081 320 1081C266.7 1081 213.3 1081 160 1081C106.7 1081 53.3 1081 26.7 1081L0 1081Z" fill="#fa69fa"></path></svg>